<svg xmlns="http://www.w3.org/2000/svg" viewBox="0 0 1200 900"><defs><linearGradient id="bg" x1="0" y1="0" x2="1" y2="1"><stop stop-color="#f5efe8"/><stop offset="1" stop-color="#dfeee7"/></linearGradient><linearGradient id="p" x1="0" y1="0" x2="1" y2="1"><stop stop-color="#a9d5c4"/><stop offset="1" stop-color="#e9d2bd"/></linearGradient></defs><rect width="1200" height="900" fill="url(#bg)"/><rect x="70" y="65" width="1060" height="770" rx="28" fill="#fffdf9" stroke="#d8d2c8"/><circle cx="108" cy="101" r="8" fill="#d99090"/><circle cx="134" cy="101" r="8" fill="#e7c66a"/><circle cx="160" cy="101" r="8" fill="#8ac49e"/><text x="105" y="168" fill="#28231f" font-family="Georgia,serif" font-size="34">Luméa</text><text x="840" y="164" fill="#746d64" font-family="Arial" font-size="13" letter-spacing="3">ABOUT  PRODUCTS  VOICE</text><text x="110" y="255" fill="#7e8d86" font-family="Arial" font-size="14" letter-spacing="4">INNER CARE / CONCEPT LP</text><text x="110" y="332" fill="#222" font-family="Arial" font-weight="700" font-size="54">内側から、</text><text x="110" y="392" fill="#222" font-family="Arial" font-weight="700" font-size="54">わたしはもっと、</text><text x="110" y="452" fill="#5d9b8c" font-family="Arial" font-weight="700" font-size="54">きれいになれる。</text><text x="110" y="514" fill="#716a62" font-family="Arial" font-size="18">毎日をやさしく支える、上質なインナーケア。</text><rect x="110" y="560" width="190" height="52" rx="26" fill="#5d9b8c"/><text x="148" y="593" fill="white" font-family="Arial" font-size="16">詳しく見る →</text><rect x="675" y="205" width="355" height="385" rx="24" fill="url(#p)"/><circle cx="850" cy="355" r="105" fill="#fff8ee" opacity=".75"/><path d="M787 473c29-122 83-193 145-205 37 83 15 176-59 240-38 33-70 32-86-35z" fill="#d6bca4" opacity=".8"/><rect x="760" y="495" width="76" height="110" rx="14" fill="#f8f4ee" stroke="#cabfac"/><rect x="778" y="468" width="40" height="35" rx="8" fill="#c7a46b"/><text x="773" y="555" fill="#6b6259" font-family="Georgia,serif" font-size="17">Luméa</text><line x1="110" y1="670" x2="1030" y2="670" stroke="#ded8ce"/><g fill="#605a53" font-family="Arial" font-size="16"><text x="130" y="725">NATURAL</text><text x="360" y="725">BEAUTY</text><text x="585" y="725">WELLNESS</text><text x="820" y="725">LIFESTYLE</text></g><g fill="#a9d5c4"><circle cx="175" cy="770" r="18"/><circle cx="402" cy="770" r="18"/><circle cx="630" cy="770" r="18"/><circle cx="866" cy="770" r="18"/></g><text x="105" y="810" fill="#8a847b" font-family="Arial" font-size="12" letter-spacing="3">SAMPLE WORK / NOT A CLIENT PROJECT</text></svg>